<?xml version="1.0" encoding="UTF-8" standalone="no"?>
<!-- Created with Inkscape (http://www.inkscape.org/) -->

<svg
   version="1.1"
   id="svg1"
   width="512"
   height="512"
   viewBox="0 0 512 512"
   sodipodi:docname="chuteira.svg"
   inkscape:version="1.3.2 (091e20e, 2023-11-25, custom)"
   xmlns:inkscape="http://www.inkscape.org/namespaces/inkscape"
   xmlns:sodipodi="http://sodipodi.sourceforge.net/DTD/sodipodi-0.dtd"
   xmlns="http://www.w3.org/2000/svg"
   xmlns:svg="http://www.w3.org/2000/svg">
  <sodipodi:namedview
     id="namedview1"
     pagecolor="#ffffff"
     bordercolor="#000000"
     borderopacity="0.25"
     inkscape:showpageshadow="2"
     inkscape:pageopacity="0.0"
     inkscape:pagecheckerboard="0"
     inkscape:deskcolor="#d1d1d1"
     inkscape:zoom="0.34388592"
     inkscape:cx="29.079411"
     inkscape:cy="245.72103"
     inkscape:window-width="1366"
     inkscape:window-height="697"
     inkscape:window-x="-8"
     inkscape:window-y="-8"
     inkscape:window-maximized="1"
     inkscape:current-layer="g1" />
  <defs
     id="defs1" />
  <g
     inkscape:groupmode="layer"
     inkscape:label="Image"
     id="g1">
    <path
       style="fill:#020202;stroke:none;stroke-width:0.326505"
       d="m 275.23452,104.96889 c 0.13662,2.98954 1.4872,5.79528 1.61967,8.81564 0.45472,10.36776 -5.06471,17.19422 -13.70036,22.33159 -3.34663,1.99091 -7.02855,3.64695 -10.77467,4.72223 -1.26585,0.36335 -4.02123,0.56039 -4.73004,1.78116 -1.15847,1.99522 -1.20095,5.17302 -1.75875,7.40709 -1.29383,5.18204 -2.81484,10.2796 -4.50355,15.34574 -4.50465,13.51394 -10.95563,26.12865 -18.45586,38.20111 -3.49201,5.62077 -8.99612,16.42794 -15.93602,17.95274 -4.01425,0.88199 -6.97546,-1.60951 -10.44816,-3.12145 -4.60812,-2.00628 -9.20633,-2.89257 -14.03973,-4.05662 -4.1081,6.08957 -8.28255,12.08052 -12.69238,17.95778 -2.52423,3.3642 -5.75505,6.45671 -6.42807,10.77467 -0.90043,5.77699 3.33117,10.48342 8.67229,11.78745 7.95475,1.94214 16.54918,0.52103 23.50837,-3.77522 6.34542,-3.91734 11.94467,-9.59912 17.63128,-14.40377 4.32992,-3.65838 9.49849,-7.0432 13.28039,-11.26896 3.35588,-3.74974 5.81222,-8.44952 9.00711,-12.37797 7.80818,-9.60095 16.65401,-18.45729 26.68827,-25.74428 5.27657,-3.8319 11.37505,-6.3353 16.65177,-10.05162 7.55059,-5.3178 14.55266,-12.04443 21.54934,-18.07745 3.82053,-3.29434 10.57139,-7.02116 12.61378,-11.75419 2.13817,-4.95501 -2.38729,-11.2787 -4.78119,-15.34574 -7.42672,-12.61745 -18.15945,-24.04228 -32.97349,-27.09993 m -62.36249,49.62878 c 2.94687,0.9426 6.74311,1.87344 9.02979,4.0909 1.54382,1.49709 1.05497,4.0836 -1.19492,4.56879 -2.56633,0.55343 -7.35034,-2.86234 -10.1204,-3.4356 l -3.26505,8.48913 c 2.92439,0.95156 6.4849,1.84282 8.7718,4.02539 1.60279,1.52968 1.13794,4.19386 -1.26244,4.6144 -2.56076,0.44865 -7.05324,-2.84832 -9.7949,-3.41571 l -3.91806,8.16263 c 2.99587,1.1471 6.78557,1.85798 9.06757,4.30503 1.45429,1.55948 0.86443,4.19724 -1.46499,4.49348 -2.6276,0.33417 -7.46285,-2.86067 -10.21462,-3.57442 l -4.24457,8.16262 c 3.23677,1.22111 6.98693,1.89233 9.73343,4.17554 1.65741,1.37783 1.64666,3.90355 -0.59632,4.71921 -3.6244,1.318 -8.3695,-5.42778 -12.27846,-3.00832 -1.45419,0.90006 -2.39948,3.456 -3.25825,4.88824 -0.70258,1.17175 -1.37636,2.27703 -1.76303,3.59156 4.45011,0.36348 9.09792,2.1879 13.06021,4.16395 2.22056,1.10742 4.90016,3.1252 7.50936,2.1238 1.72682,-0.66275 2.83407,-2.60392 3.91479,-4.00221 2.8419,-3.67698 5.42292,-7.53455 7.95176,-11.42768 8.3393,-12.83831 14.98962,-27.08974 19.29026,-41.79266 1.44565,-4.94237 3.35838,-10.18984 3.7795,-15.34575 -4.99517,0.0413 -10.00022,0.35046 -15.01924,0.32626 -3.27883,-0.0158 -5.87995,-0.65856 -8.81085,1.34053 -2.82649,1.92789 -4.34228,6.50604 -4.90237,9.76089 m 99.25757,1.63253 -5.55058,4.89758 v 0.3265 c 1.78268,1.86265 5.10887,5.47219 6.86138,7.40154 2.21409,2.43751 6.36397,-1.39171 5.38483,-4.7895 -0.69399,-2.40826 -4.71,-6.40794 -6.69563,-7.83612 m -28.40595,23.83488 c 1.03529,1.99821 4.82657,6.95308 6.86946,8.05103 3.54643,1.90602 7.74425,-1.38988 5.47501,-4.46073 -1.46593,-1.98376 -4.77583,-6.16506 -6.14087,-8.16138 l -6.2036,4.57108 m -55.17937,51.26131 c -1.47259,0.67453 -5.77965,3.33041 -5.53094,5.22534 0.14452,1.10106 1.3944,2.13327 2.07341,2.93704 0.55138,0.65267 1.27035,1.94052 2.20694,1.98624 5.01673,0.24488 7.39993,-3.5222 5.04596,-5.25129 -1.57048,-1.15359 -2.62527,-3.34474 -3.79537,-4.89733 m -29.05896,23.83487 c 2.38857,3.61097 4.25709,6.78613 8.16238,3.51094 0.74223,-0.62247 2.0729,-1.44464 2.07844,-2.54427 0.007,-1.38358 -3.22533,-5.40643 -4.70308,-5.12759 -1.83318,0.3459 -4.14415,2.95499 -5.53774,4.16092 z"
       id="path1"
       sodipodi:nodetypes="cssssssssscssssssssssssccssccssccssccsssscssssscssccccssccsscccssssccsssc" />
  </g>
</svg>
