<?xml version="1.0" encoding="UTF-8" standalone="no"?>
<!-- Created with Inkscape (http://www.inkscape.org/) -->

<svg
   version="1.1"
   id="svg1"
   width="512"
   height="512"
   viewBox="0 0 512 512"
   sodipodi:docname="camisa.svg"
   inkscape:version="1.3.2 (091e20e, 2023-11-25, custom)"
   xml:space="preserve"
   xmlns:inkscape="http://www.inkscape.org/namespaces/inkscape"
   xmlns:sodipodi="http://sodipodi.sourceforge.net/DTD/sodipodi-0.dtd"
   xmlns="http://www.w3.org/2000/svg"
   xmlns:svg="http://www.w3.org/2000/svg"><sodipodi:namedview
     id="namedview1"
     pagecolor="#ffffff"
     bordercolor="#000000"
     borderopacity="0.25"
     inkscape:showpageshadow="2"
     inkscape:pageopacity="0.0"
     inkscape:pagecheckerboard="0"
     inkscape:deskcolor="#d1d1d1"
     inkscape:zoom="0.34388592"
     inkscape:cx="27.625441"
     inkscape:cy="245.72103"
     inkscape:window-width="1366"
     inkscape:window-height="697"
     inkscape:window-x="-8"
     inkscape:window-y="-8"
     inkscape:window-maximized="1"
     inkscape:current-layer="g1" /><defs
     id="defs1" /><g
     inkscape:groupmode="layer"
     inkscape:label="Image"
     id="g1"><path
       style="fill:#040404;stroke:none"
       d="m 105.08294,224.35279 v 100 c 0,7.12802 -3.88948,30.5169 7.99691,29.66281 7.20262,-0.51755 7.00103,-8.33518 7.00309,-13.66281 v -45 -104 c 0,-27.12687 -0.0777,-58.6203 -11,-84 17.07608,-3.95047 34.01861,-9.20215 51,-13.62884 5.57716,-1.45386 13.23941,-5.93018 19,-5.28937 6.99789,0.77844 12.52327,9.20151 19,11.8287 4.64708,1.88501 10.27125,-0.46219 10.66281,-5.91357 0.43023,-5.9899 -6.672,-9.32385 -10.66281,-12.42209 -8.13193,-6.3132 -18.96624,-14.36072 -22,-24.57483 l 12,-5 c 7.25625,14.33048 31.47837,24.83704 45,32.57251 4.95658,2.83557 11.11357,7.33951 17,7.33951 6.00958,0 11.96661,-4.61121 17,-7.49072 13.57849,-7.76801 37.69342,-17.99118 45,-32.4213 l 12,5 c -6.05817,20.39642 -36.77207,35.5445 -54,45.4213 -5.54966,3.18161 -12.53498,8.87954 -19,9.72839 -8.22141,1.07946 -20.87304,-15.39865 -28.25773,-6.71603 -8.95065,10.52379 21.4256,24.46224 29.25773,23.34875 6.14926,-0.87424 12.66082,-5.74997 18,-8.78241 11.19619,-6.35901 22.49957,-12.65481 33,-20.1412 4.87225,-3.47373 11.14071,-10.30869 17,-11.67594 5.5354,-1.29165 13.64096,3.51074 19,4.93286 17.28439,4.58677 34.59839,9.85846 52,13.88428 -13.33286,30.98086 -11,69.06271 -11,102 v 164 69 c 0,6.0711 2.65667,20.6358 -1.6034,25.35107 -3.49759,3.87131 -11.54742,5.06131 -16.3966,6.27393 -14.38636,3.5975 -29.28003,5.67224 -44,7.32483 -47.3924,5.32067 -94.66251,4.87286 -142,-0.79474 -15.81159,-1.89307 -39.16939,-2.68174 -52.85186,-11.57175 -5.44364,-3.53696 -3.14814,-14.93643 -3.14814,-20.58334 v -60 c 0,-5.65992 -1.53559,-27.57172 -12.56636,-16.56635 -5.17409,5.16217 -2.43364,19.78574 -2.43364,26.56635 v 58 c 0,10.66229 -0.71915,19.87814 10.00077,25.60107 17.77482,9.48926 41.31939,11.19907 60.99923,13.55402 48.68328,5.82559 98.32028,6.45251 147,0.12655 19.80429,-2.57361 51.11844,-3.02877 66.81173,-16.96219 7.43961,-6.60531 5.18827,-18.37606 5.18827,-27.31945 v -69 -152 c 0,-38.8378 -1.71042,-77.25797 9,-115 l 51,54 c -10.56147,12.09842 -20.65287,24.64825 -30.91898,37 -4.30667,5.18161 -11.48361,11.47458 -13.51312,18 -3.97492,12.78045 23.34808,20.64843 32.4321,19.90664 9.11367,-0.74423 14.29651,-7.35925 19.75308,-13.90664 l 31.49383,-38 c 6.04349,-7.25498 12.7479,-14.86698 11.56791,-25 -1.87592,-16.1091 -20.91068,-31.44556 -31.10032,-43 -16.58242,-18.80347 -35.92761,-42.60651 -58.7145,-54.02933 -26.14005,-13.10373 -56.96711,-14.62387 -84,-25.57486 -11.37601,-4.60839 -17.61664,-13.97338 -28,-19.72992 -16.65403,-9.232998 -39.24533,-11.447841 -58,-10.626522 -16.37931,0.717285 -34.26848,2.208649 -49,10.084072 -11.48461,6.13962 -18.4285,16.19523 -31,21.06562 -26.23771,10.16488 -55.48114,12.29547 -81.000003,24.30014 -24.924571,11.7251 -45.211891,38.40417 -63.165901,58.5108 -8.36388,9.3667 -19.8400795,19.57687 -25.2908895,31 -10.9710505,22.99173 24.1719395,51.17401 37.3765395,67 6.08128,7.28854 11.84973,16.53729 22.08025,17.81482 17.569061,2.1939 33.720651,-13.23084 49.000004,-19.81482 m 197,-183 c -6.01279,12.33893 -26.44074,21.51456 -38,28.14969 -4.05579,2.32806 -9.12647,6.42438 -14,6.42438 -4.87355,0 -9.9442,-4.09632 -14,-6.42438 -11.55933,-6.63516 -31.98706,-15.8107 -38,-28.14969 26.83851,-17.699829 77.1615,-17.69989 104,0 m -140,22 6,13 c -22.75045,4.70825 -51.75614,9.73776 -72.000003,21.33719 -22.03376,12.62503 -44.750341,38.82315 -59.000001,59.66281 h -3 l -6.83256,-11 6.40818,-9 20.42438,-22 34.000001,-30.23996 38.000003,-12.64432 36,-9.11572 m 304,94 c -7.21085,-3.37192 -11.82325,-11.20963 -17.07486,-17 -11.02304,-12.1539 -22.22629,-25.0821 -34.92514,-35.53625 -21.07352,-17.34851 -55.71952,-23.02494 -82,-28.46375 l 6,-13 36,9.11572 37,11.97763 35,30.90665 20.42437,22 6.40821,9 -6.83258,11 m -370.000003,-42 c 9.574993,25.01416 9.000003,53.66742 9.000003,80 0,9.18948 -7.502313,24.0202 -19.910503,21.18286 -4.62871,-1.05844 -8.80899,-8.73804 -11.67592,-12.18286 -9.442031,-11.34534 -18.707461,-22.88135 -28.413581,-34 v -1 c 14.98301,-18.46128 31.440701,-40.22214 51.000001,-54 m 222.000003,30.4645 c -48.93891,8.80802 -34.69913,82.54682 14,73.22452 46.01892,-8.80923 31.83621,-81.47412 -14,-73.22452 m -301.000004,12.5355 36.24691,44 17.753091,23 c -4.013351,2.33361 -9.233261,5.75171 -13.996151,3.64196 -5.43893,-2.40921 -9.23678,-9.21676 -12.92361,-13.64196 l -24.16049,-29 c -3.5552,-4.26722 -9.22177,-9.40073 -10.4714495,-15 -1.13223,-5.073 2.9937595,-9.11225 5.5516995,-13 h 2 m 468.000004,0 c 2.55792,3.88772 6.6839,7.927 5.55169,13 -1.24966,5.59927 -6.91623,10.73275 -10.47143,15 l -24.16052,29 c -3.6868,4.42517 -7.48468,11.23275 -12.92359,13.64196 -4.76288,2.10975 -9.98282,-1.30835 -13.99615,-3.64196 l 17.75308,-23 36.24692,-44 h 2 m -166,2.3287 c 29.53772,-5.18893 37.5325,39.02191 8,44.20603 -27.64722,4.85318 -35.75589,-39.33008 -8,-44.20603 z"
       id="path2" /></g></svg>
